<?xml version="1.0" encoding="utf-8"?>
<!-- Generator: Adobe Illustrator 16.0.0, SVG Export Plug-In . SVG Version: 6.00 Build 0)  -->
<!DOCTYPE svg PUBLIC "-//W3C//DTD SVG 1.1//EN" "http://www.w3.org/Graphics/SVG/1.1/DTD/svg11.dtd">
<svg version="1.1" id="レイヤー_1" xmlns="http://www.w3.org/2000/svg" xmlns:xlink="http://www.w3.org/1999/xlink" x="0px"
	 y="0px" width="841.89px" height="595.28px" viewBox="0 0 841.89 595.28" enable-background="new 0 0 841.89 595.28"
	 xml:space="preserve">
<g>
	<path fill="#0096A1" d="M470.947,300.399c-1.523,0-2.758-1.234-2.758-2.76c0-1.523,1.234-2.758,2.758-2.758
		c0.041,0,0.078,0.01,0.117,0.012v-7.175h-99.212v19.843h99.212v-7.174C471.025,300.39,470.988,300.399,470.947,300.399z"/>
	<g>
		<path fill-rule="evenodd" clip-rule="evenodd" fill="#FFFFFF" d="M412.365,297.676c0,4.46,6.133,6.122,9.162,1.579
			c3.139,4.709,9.026,2.734,9.026-1.586c0-4.321-5.859-6.398-9.026-1.574C418.525,291.325,412.365,293.216,412.365,297.676
			L412.365,297.676z M413.976,297.676c0-3.219,4.548-4.235,6.664,0C418.482,301.752,413.976,300.896,413.976,297.676
			L413.976,297.676z M422.414,297.676c1.906-4.317,6.578-3.128,6.562,0.007C428.963,300.817,424.264,301.794,422.414,297.676z"/>
		<rect x="415.685" y="297.224" fill-rule="evenodd" clip-rule="evenodd" fill="#FFFFFF" width="2.699" height="0.891"/>
		<polygon fill-rule="evenodd" clip-rule="evenodd" fill="#FFFFFF" points="425.48,298.101 424.59,298.101 424.59,297.153 
			425.48,297.153 425.48,296.265 426.426,296.265 426.426,297.153 427.316,297.153 427.316,298.101 426.426,298.101 
			426.426,298.991 425.48,298.991 		"/>
	</g>
	<g>
		<text transform="matrix(0 1 -1 0 372.6953 288.6973)" fill="#FFFFFF" font-family="'KozGoPro-Medium-83pv-RKSJ-H'" font-size="5">8</text>
		<text transform="matrix(0 1 -1 0 372.6953 300.0703)" fill="#FFFFFF" font-family="'KozGoPro-Medium-83pv-RKSJ-H'" font-size="5">~9</text>
	</g>
	<g>
		<circle fill="#901D22" cx="424.068" cy="290.571" r="0.875"/>
		<circle fill="#1A2A7E" cx="424.068" cy="304.772" r="0.875"/>
	</g>
	<g>
		<text transform="matrix(0 1 -1 0 379.8535 288.6973)" fill="#FFFFFF" font-family="'KozGoPro-Medium-83pv-RKSJ-H'" font-size="5">7</text>
		<text transform="matrix(0 1 -1 0 379.8535 297.3208)" fill="#FFFFFF" font-family="'KozGoPro-Medium-83pv-RKSJ-H'" font-size="5">~10</text>
	</g>
	<g>
		<text transform="matrix(0 1 -1 0 387.0117 288.6973)" fill="#FFFFFF" font-family="'KozGoPro-Medium-83pv-RKSJ-H'" font-size="5">6~</text>
		<text transform="matrix(0 1 -1 0 387.0117 297.3203)" fill="#FFFFFF" font-family="'KozGoPro-Medium-83pv-RKSJ-H'" font-size="5">~11</text>
	</g>
	<g>
		<text transform="matrix(0 1 -1 0 394.1699 288.6973)" fill="#FFFFFF" font-family="'KozGoPro-Medium-83pv-RKSJ-H'" font-size="5">5~</text>
		<text transform="matrix(0 1 -1 0 394.1699 300.6904)" fill="#FFFFFF" font-family="'KozGoPro-Medium-83pv-RKSJ-H'" font-size="5">12</text>
	</g>
	<g>
		<text transform="matrix(0 1 -1 0 429.9609 288.6973)" fill="#FFFFFF" font-family="'KozGoPro-Medium-83pv-RKSJ-H'" font-size="5">4</text>
		<text transform="matrix(0 1 -1 0 429.9609 300.165)" fill="#FFFFFF" font-family="'KozGoPro-Medium-83pv-RKSJ-H'" font-size="5">A0</text>
	</g>
	<g>
		<text transform="matrix(0 1 -1 0 437.1191 288.6973)" fill="#FFFFFF" font-family="'KozGoPro-Medium-83pv-RKSJ-H'" font-size="5">3~</text>
		<text transform="matrix(0 1 -1 0 437.1191 300.165)" fill="#FFFFFF" font-family="'KozGoPro-Medium-83pv-RKSJ-H'" font-size="5">A1</text>
	</g>
	<g>
		<text transform="matrix(0 1 -1 0 444.2773 288.6973)" fill="#FFFFFF" font-family="'KozGoPro-Medium-83pv-RKSJ-H'" font-size="5">2</text>
		<text transform="matrix(0 1 -1 0 444.2773 300.165)" fill="#FFFFFF" font-family="'KozGoPro-Medium-83pv-RKSJ-H'" font-size="5">A2</text>
	</g>
	<g>
		<text transform="matrix(0 1 -1 0 451.4355 288.6973)" fill="#FFFFFF" font-family="'KozGoPro-Medium-83pv-RKSJ-H'" font-size="5">1</text>
		<text transform="matrix(0 1 -1 0 451.4355 300.165)" fill="#FFFFFF" font-family="'KozGoPro-Medium-83pv-RKSJ-H'" font-size="5">A3</text>
	</g>
	<g>
		<text transform="matrix(0 1 -1 0 458.5938 288.6973)" fill="#FFFFFF" font-family="'KozGoPro-Medium-83pv-RKSJ-H'" font-size="5">0</text>
		<text transform="matrix(0 1 -1 0 458.5938 300.165)" fill="#FFFFFF" font-family="'KozGoPro-Medium-83pv-RKSJ-H'" font-size="5">A4</text>
	</g>
	<g>
		<text transform="matrix(0 1 -1 0 465.7539 288.6973)" fill="#FFFFFF" font-family="'KozGoPro-Medium-83pv-RKSJ-H'" font-size="5">R</text>
		<text transform="matrix(0 1 -1 0 465.7539 300.165)" fill="#FFFFFF" font-family="'KozGoPro-Medium-83pv-RKSJ-H'" font-size="5">A5</text>
	</g>
	<g>
		<circle fill="#901D22" cx="409.751" cy="304.772" r="0.875"/>
		<circle fill="#D2D276" cx="409.751" cy="290.571" r="0.875"/>
	</g>
	<g>
		<text transform="matrix(0 1 -1 0 401.3281 300.6904)" fill="#FFFFFF" font-family="'KozGoPro-Medium-83pv-RKSJ-H'" font-size="5">13</text>
		<circle fill="#D2D276" cx="402.693" cy="290.571" r="0.875"/>
	</g>
	<g>
		<circle fill="#1A2A7E" cx="416.91" cy="290.571" r="0.875"/>
		<circle fill="#6CBA4E" cx="416.91" cy="304.772" r="0.875"/>
	</g>
</g>
</svg>
